<svg viewBox="0 0 128 128" width="128" height="128" fill="none" xmlns="http://www.w3.org/2000/svg">
  <!-- Wings -->
  <ellipse cx="34" cy="40" rx="18" ry="10" transform="rotate(-30 34 40)" fill="#f0b42944" stroke="#f0b429" stroke-width="2"/>
  <ellipse cx="94" cy="40" rx="18" ry="10" transform="rotate(30 94 40)" fill="#f0b42944" stroke="#f0b429" stroke-width="2"/>
  <!-- Head -->
  <circle cx="64" cy="36" r="16" fill="#f0b429"/>
  <circle cx="64" cy="36" r="16" fill="none" stroke="#1a1a2e" stroke-width="2.5"/>
  <!-- Eyes -->
  <circle cx="57" cy="33" r="3.5" fill="#1a1a2e"/>
  <circle cx="71" cy="33" r="3.5" fill="#1a1a2e"/>
  <circle cx="58.5" cy="31.5" r="1.2" fill="#fff"/>
  <circle cx="72.5" cy="31.5" r="1.2" fill="#fff"/>
  <!-- Antennae -->
  <path d="M58 22 Q55 12 50 8" stroke="#1a1a2e" stroke-width="2.5" fill="none" stroke-linecap="round"/>
  <circle cx="49" cy="7" r="3" fill="#f0b429" stroke="#1a1a2e" stroke-width="1.5"/>
  <path d="M70 22 Q73 12 78 8" stroke="#1a1a2e" stroke-width="2.5" fill="none" stroke-linecap="round"/>
  <circle cx="79" cy="7" r="3" fill="#f0b429" stroke="#1a1a2e" stroke-width="1.5"/>
  <!-- Smile -->
  <path d="M58 40 Q64 46 70 40" stroke="#1a1a2e" stroke-width="2" fill="none" stroke-linecap="round"/>
  <!-- Body -->
  <ellipse cx="64" cy="72" rx="26" ry="30" fill="#f0b429"/>
  <ellipse cx="64" cy="72" rx="26" ry="30" fill="none" stroke="#1a1a2e" stroke-width="2.5"/>
  <!-- Stripes -->
  <rect x="38" y="60" width="52" height="6" rx="2" fill="#1a1a2e"/>
  <rect x="38" y="74" width="52" height="6" rx="2" fill="#1a1a2e"/>
  <rect x="42" y="88" width="44" height="5" rx="2" fill="#1a1a2e"/>
  <!-- Stinger -->
  <path d="M60 102 L64 114 L68 102" stroke="#1a1a2e" stroke-width="2.5" fill="none" stroke-linecap="round" stroke-linejoin="round"/>
  <!-- Legs -->
  <path d="M42 65 Q32 68 28 75" stroke="#1a1a2e" stroke-width="2" fill="none" stroke-linecap="round"/>
  <path d="M42 78 Q30 82 26 90" stroke="#1a1a2e" stroke-width="2" fill="none" stroke-linecap="round"/>
  <path d="M86 65 Q96 68 100 75" stroke="#1a1a2e" stroke-width="2" fill="none" stroke-linecap="round"/>
  <path d="M86 78 Q98 82 102 90" stroke="#1a1a2e" stroke-width="2" fill="none" stroke-linecap="round"/>
</svg>
